# This file uses centimeters as units for non-parametric coordinates.

g default
v -80.313961 1.969371 10.387966
v -89.488577 8.211840 11.725435
v -69.562617 12.114905 10.672369
v -87.819737 21.262302 14.823078
v -66.883219 17.494852 10.346410
v -87.750848 27.354599 13.082026
v -83.579742 28.503931 11.728916
v -77.230232 27.277660 10.406813
v -64.615872 20.789242 8.761614
v -79.384964 35.865501 -1.808340
v -89.096550 31.625673 7.397349
v -60.618648 20.456545 -0.677603
v -85.734790 23.003672 -8.657785
v -78.895193 24.322620 -11.426216
v -69.727757 22.004486 -10.317169
v -60.612362 18.075174 -3.060791
v -88.170735 14.567844 -4.309651
v -89.507151 6.264155 -0.268886
v -70.033776 5.329797 -1.411056
v -86.828214 1.495152 3.904759
v -77.064628 -1.075063 1.380286
v -88.714661 3.323358 9.820659
v -72.055457 3.540334 8.597269
v -87.483049 31.264105 -1.207796
vt 0.030137 0.064089
vt 0.165881 0.088360
vt 0.006413 0.253356
vt 0.128022 0.001490
vt 0.188256 0.261227
vt 0.001992 0.180387
vt 0.155933 0.293526
vt 0.286676 0.314521
vt 0.027908 0.298038
vt 0.171269 0.502519
vt 0.545155 0.026286
vt 0.570990 0.092589
vt 0.408309 0.066173
vt 0.613003 0.269594
vt 0.464917 0.001490
vt 0.589389 0.352225
vt 0.395575 0.405250
vt 0.353504 0.178797
vt 0.512287 0.410154
vt 0.294530 0.293213
vt 0.397312 0.432498
vt 0.454206 0.616105
vt 0.340739 0.414145
vt 0.483431 0.450430
vt 0.322487 0.491247
vt 0.654521 0.472744
vt 0.344371 0.607960
vt 0.460849 0.746553
vt 0.585188 0.731511
vt 0.368083 0.709005
vt 0.228419 0.706875
vt 0.316352 0.618522
vt 0.308657 0.732461
vt 0.194180 0.574451
vt 0.117006 0.725084
vt 0.292064 0.506511
vt 0.785093 0.379259
vt 0.930915 0.516864
vt 0.671153 0.397623
vt 0.897104 0.400566
vt 0.660657 0.463926
vt 0.683291 0.640931
vt 0.684226 0.723562
vt 0.740799 0.739150
vt 0.826918 0.722518
vt 0.967256 0.589833
vt 0.998008 0.634515
vt 0.620005 0.249462
vt 0.752310 0.375268
vt 0.637894 0.342229
vt 0.651446 0.125123
vt 0.964477 0.224634
vt 0.877607 0.129274
vt 0.704740 0.001490
vt 0.092662 0.506511
vt 0.110871 0.683817
vt 0.074536 0.619135
vn -0.061380 0.037085 0.997425
vn -0.061380 0.037085 0.997425
vn -0.061380 0.037085 0.997425
vn 0.116706 -0.344483 0.931510
vn 0.116706 -0.344483 0.931510
vn 0.116706 -0.344483 0.931510
vn 0.255970 -0.297042 0.919916
vn 0.255970 -0.297042 0.919916
vn 0.255970 -0.297042 0.919916
vn 0.098364 -0.241713 0.965349
vn 0.098364 -0.241713 0.965349
vn 0.098364 -0.241713 0.965349
vn 0.334252 0.255479 0.907197
vn 0.334252 0.255479 0.907197
vn 0.334252 0.255479 0.907197
vn 0.263257 0.163868 0.950707
vn 0.263257 0.163868 0.950707
vn 0.263257 0.163868 0.950707
vn 0.226334 0.131358 0.965152
vn 0.226334 0.131358 0.965152
vn 0.226334 0.131358 0.965152
vn 0.042842 0.039149 0.998315
vn 0.042842 0.039149 0.998315
vn 0.042842 0.039149 0.998315
vn 0.258955 0.268160 0.927919
vn 0.258955 0.268160 0.927918
vn 0.258955 0.268160 0.927919
vn 0.265312 0.810139 0.522766
vn 0.265312 0.810139 0.522766
vn 0.265312 0.810139 0.522766
vn -0.097728 0.886697 0.451905
vn -0.097728 0.886697 0.451905
vn -0.097728 0.886697 0.451905
vn 0.453146 0.764891 0.457821
vn 0.453146 0.764891 0.457821
vn 0.453146 0.764891 0.457821
vn 0.181518 0.806364 0.562876
vn 0.181518 0.806364 0.562876
vn 0.181518 0.806364 0.562876
vn 0.609040 0.758704 0.231168
vn 0.609040 0.758704 0.231168
vn 0.609040 0.758704 0.231168
vn -0.497111 0.858005 -0.129261
vn -0.497111 0.858005 -0.129261
vn -0.497111 0.858005 -0.129261
vn -0.383617 0.581501 -0.717423
vn -0.383617 0.581501 -0.717423
vn -0.383617 0.581501 -0.717423
vn -0.400824 0.565353 -0.720914
vn -0.400824 0.565353 -0.720914
vn -0.400824 0.565353 -0.720914
vn 0.247799 0.626357 -0.739103
vn 0.247799 0.626357 -0.739103
vn 0.247799 0.626357 -0.739103
vn 0.584619 0.679465 -0.443338
vn 0.584619 0.679465 -0.443338
vn 0.584619 0.679465 -0.443338
vn 0.655155 0.535282 -0.533146
vn 0.655155 0.535282 -0.533146
vn 0.655155 0.535282 -0.533146
vn -0.285524 -0.372657 -0.882951
vn -0.285524 -0.372657 -0.882951
vn -0.285524 -0.372657 -0.882951
vn -0.042277 -0.562298 -0.825853
vn -0.042277 -0.562298 -0.825853
vn -0.042277 -0.562298 -0.825853
vn 0.442220 -0.428853 -0.787735
vn 0.442220 -0.428853 -0.787735
vn 0.442220 -0.428853 -0.787735
vn 0.422725 -0.450650 -0.786268
vn 0.422725 -0.450650 -0.786269
vn 0.422725 -0.450650 -0.786269
vn -0.125353 -0.416523 -0.900441
vn -0.125353 -0.416524 -0.900442
vn -0.125353 -0.416524 -0.900442
vn -0.339960 -0.525140 -0.780164
vn -0.339960 -0.525140 -0.780164
vn -0.339960 -0.525140 -0.780164
vn 0.080012 -0.470753 -0.878630
vn 0.080012 -0.470753 -0.878630
vn 0.080012 -0.470753 -0.878630
vn -0.170273 -0.955477 0.240978
vn -0.170273 -0.955477 0.240978
vn -0.170273 -0.955477 0.240978
vn -0.184131 -0.949393 0.254457
vn -0.184131 -0.949393 0.254457
vn -0.184131 -0.949393 0.254457
vn 0.674333 -0.738415 0.004188
vn 0.674333 -0.738415 0.004188
vn 0.674333 -0.738415 0.004188
vn 0.253041 -0.885166 0.390450
vn 0.253041 -0.885166 0.390450
vn 0.253041 -0.885166 0.390450
vn 0.925443 -0.358415 0.122856
vn 0.925443 -0.358415 0.122856
vn 0.925443 -0.358415 0.122856
vn 0.772025 -0.352449 0.528920
vn 0.772025 -0.352449 0.528920
vn 0.772025 -0.352449 0.528920
vn 0.776668 -0.530064 0.340322
vn 0.776668 -0.530064 0.340322
vn 0.776668 -0.530064 0.340322
vn 0.845126 -0.377024 0.378966
vn 0.845126 -0.377024 0.378966
vn 0.845126 -0.377024 0.378966
vn 0.838934 -0.399712 0.369352
vn 0.838934 -0.399712 0.369352
vn 0.838934 -0.399712 0.369352
vn -0.830146 -0.549405 -0.094931
vn -0.830146 -0.549405 -0.094931
vn -0.830146 -0.549405 -0.094931
vn -0.985507 -0.167193 0.028676
vn -0.985507 -0.167193 0.028676
vn -0.985507 -0.167193 0.028676
vn -0.981886 0.072930 -0.174873
vn -0.981886 0.072930 -0.174873
vn -0.981886 0.072930 -0.174873
vn -0.996722 0.080828 0.003434
vn -0.996722 0.080828 0.003434
vn -0.996722 0.080828 0.003434
vn -0.991126 0.131443 -0.019809
vn -0.991126 0.131443 -0.019809
vn -0.991126 0.131443 -0.019809
vn -0.996385 0.033570 0.078043
vn -0.996385 0.033570 0.078043
vn -0.996385 0.033570 0.078043
vn -0.938211 0.100183 -0.331247
vn -0.938211 0.100183 -0.331247
vn -0.938211 0.100183 -0.331247
vn -0.872648 -0.466632 -0.144018
vn -0.872647 -0.466632 -0.144018
vn -0.872648 -0.466632 -0.144018
s off
g pCube3
f 1/37/1 3/38/2 22/39/3
f 22/39/4 3/38/5 2/41/6
f 1/37/7 23/40/8 3/38/9
f 2/41/10 3/38/11 4/42/12
f 4/42/13 3/38/14 6/43/15
f 6/43/16 3/38/17 7/44/18
f 3/38/19 8/45/20 7/44/21
f 5/46/22 8/45/23 3/38/24
f 8/45/25 5/46/26 9/47/27
f 8/24/28 10/22/29 7/21/30
f 7/21/31 10/22/32 6/23/33
f 8/24/34 9/26/35 10/22/36
f 6/23/37 10/22/38 11/25/39
f 10/10/40 9/9/41 12/7/42
f 24/27/43 11/25/44 10/22/45
f 10/22/46 14/28/47 24/27/48
f 24/27/49 14/28/50 13/30/51
f 14/28/52 10/22/53 15/29/54
f 10/10/55 12/7/56 15/8/57
f 15/8/58 12/7/59 16/5/60
f 14/48/61 17/49/62 13/50/63
f 14/48/64 15/51/65 17/49/66
f 16/54/67 19/53/68 15/51/69
f 17/55/70 20/56/71 18/57/72
f 15/51/73 21/52/74 17/49/75
f 17/35/76 21/34/77 20/31/78
f 15/51/79 19/53/80 21/52/81
f 20/31/82 1/32/83 22/33/84
f 20/31/85 21/34/86 1/32/87
f 19/2/88 23/1/89 21/4/90
f 21/34/91 23/36/92 1/32/93
f 23/1/94 19/2/95 5/3/96
f 3/6/97 23/1/98 5/3/99
f 19/2/100 16/5/101 5/3/102
f 16/5/103 12/7/104 5/3/105
f 9/9/106 5/3/107 12/7/108
f 20/15/109 22/11/110 18/13/111
f 22/11/112 2/12/113 18/13/114
f 17/18/115 18/13/116 24/17/117
f 24/17/118 18/13/119 6/16/120
f 2/12/121 4/14/122 18/13/123
f 18/13/124 4/14/125 6/16/126
f 17/18/127 24/17/128 13/20/129
f 6/16/130 11/19/131 24/17/132
