# This file uses centimeters as units for non-parametric coordinates.

g default
v -11.122090 -1.530382 5.044731
v -3.836579 38.916570 8.232530
v 1.842075 38.421666 8.373335
v -4.396976 31.259498 -2.677928
v 2.948792 30.073668 -6.818697
v -8.436378 -0.660691 -8.727138
v 10.833327 -1.835918 -4.851866
v 6.315012 18.997720 -6.279043
v -5.717702 25.191576 11.427554
v 8.487516 24.012117 9.928477
v -10.270010 19.686909 -3.183684
v 11.171123 10.499822 8.973087
v 5.955036 5.221284 -6.990196
v -4.786294 5.197798 -5.962208
v -5.341228 12.501261 10.281930
v -0.431421 33.716453 -1.486243
v 4.069948 38.073197 5.067475
v -2.765592 38.138040 5.412996
v 16.354857 -1.949204 6.139692
v 15.132710 3.478757 4.033004
vt 0.727238 0.074047
vt 0.713505 0.533280
vt 0.648977 0.346623
vt 0.871292 0.427088
vt 0.669621 0.537906
vt 0.661659 0.167250
vt 0.864128 0.280058
vt 0.699272 0.001992
vt 0.873568 0.097179
vt 0.845182 0.003496
vt 0.447670 0.283647
vt 0.641630 0.356720
vt 0.561789 0.528581
vt 0.626423 0.188259
vt 0.599217 0.538916
vt 0.454383 0.437270
vt 0.374082 0.013537
vt 0.556900 0.001992
vt 0.303513 0.550098
vt 0.378896 0.548229
vt 0.408471 0.592113
vt 0.317730 0.587526
vt 0.348716 0.679112
vt 0.393587 0.749899
vt 0.296074 0.694932
vt 0.262186 0.346623
vt 0.173970 0.537906
vt 0.073615 0.362280
vt 0.098587 0.544476
vt 0.297810 0.167250
vt 0.078613 0.193819
vt 0.001873 0.007552
vt 0.366623 0.001992
vt 0.718283 0.727898
vt 0.893759 0.590016
vt 0.938445 0.737047
vt 0.848888 0.541659
vt 0.791078 0.920238
vt 0.796246 0.574275
vt 0.742624 0.998008
vt 0.652534 0.542669
vt 0.647756 0.725548
vt 0.456713 0.803630
vt 0.712514 0.819231
vt 0.446738 0.803630
vt 0.414240 0.542669
vt 0.450944 0.620439
vn 0.107327 0.029540 0.993785
vn 0.076943 0.182322 0.980224
vn 0.091938 0.040057 0.994959
vn -0.004338 0.227288 0.973818
vn 0.025586 0.980024 -0.197226
vn 0.087856 0.995085 -0.045682
vn 0.000675 0.875856 -0.482572
vn -0.510298 0.446769 -0.734842
vn -0.373168 0.154780 -0.914761
vn -0.223158 0.097592 -0.969885
vn -0.132352 0.022624 -0.990945
vn 0.885623 0.121861 -0.448132
vn 0.933062 0.331465 -0.139735
vn 0.951526 0.304498 0.043356
vn 0.775930 0.409621 0.479734
vn -0.977136 -0.001683 0.212610
vn -0.959734 0.167552 0.225470
vn -0.959370 0.281753 0.014984
vn -0.930035 0.042500 -0.365004
vn -0.977901 -0.013856 0.208611
vn 0.021493 -0.210336 0.977393
vn 0.857921 0.135343 0.495634
vn -0.990931 0.129219 -0.036843
vn 0.133274 -0.033583 -0.990510
vn 0.059560 0.026317 -0.997878
vn 0.184698 -0.165844 -0.968702
vn -0.893867 0.423346 -0.147583
vn -0.006359 -0.299736 0.954001
vn 0.017291 -0.215040 0.976452
vn 0.906852 0.313504 0.281664
vn -0.443380 0.337612 -0.830321
vn 0.366500 -0.145838 -0.918917
vn -0.054874 0.879758 -0.472245
vn 0.047216 -0.243904 0.968649
vn 0.862917 0.175377 -0.473938
vn 0.909010 0.297235 -0.292152
vn -0.088693 0.817000 -0.569775
vn 0.011525 0.829054 -0.559050
vn -0.293300 0.756748 -0.584215
vn -0.868672 0.449909 -0.207341
vn 0.258989 0.275546 -0.925743
vn 0.813278 0.150173 -0.562163
vn 0.806041 0.435850 -0.400417
vn 0.786853 0.072756 -0.612837
s 1
g pCube1
f 10/26/1 3/27/2 9/28/3
f 9/28/3 3/27/2 2/29/4
s 2
f 2/19/5 3/20/6 17/21/7
s 3
f 16/37/8 5/35/9 11/34/10
f 11/34/10 5/35/9 8/36/11
s 4
f 20/1/12 17/2/13 10/3/14
f 10/3/14 17/2/13 3/5/15
s 5
f 11/11/16 9/12/17 18/13/18
f 18/13/18 9/12/17 2/15/19
f 15/14/20 9/12/17 11/11/16
s 1
f 12/30/21 10/26/1 9/28/3
s 4
f 12/6/22 20/1/12 10/3/14
s 5
f 6/17/23 15/14/20 11/11/16
s 3
f 8/41/11 13/42/24 6/43/25
f 6/43/25 13/42/24 7/44/26
s 5
f 6/17/23 1/18/27 15/14/20
s 1
f 1/32/28 19/33/29 12/30/21
f 12/6/21 19/8/29 20/1/30
s 3
f 11/34/10 8/36/11 14/38/31
f 16/37/8 11/34/10 4/39/32
s 2
f 18/22/33 2/19/5 17/21/7
s 1
f 12/30/21 9/28/3 15/31/34
f 15/31/34 1/32/28 12/30/21
s 3
f 8/45/11 6/46/25 14/47/31
s 4
f 8/7/35 5/4/36 20/1/12
f 20/1/12 5/4/36 17/2/13
s 2
f 16/23/37 17/21/7 5/24/38
f 17/21/7 16/23/37 18/22/33
f 18/22/33 16/23/37 4/25/39
s 5
f 4/16/40 11/11/16 18/13/18
f 14/38/41 6/40/23 11/34/16
s 4
f 19/8/42 7/10/43 13/9/44
f 19/8/42 13/9/44 20/1/12
f 20/1/12 13/9/44 8/7/35
