# This file uses centimeters as units for non-parametric coordinates.

g default
v 0.000000 -0.076526 -0.707107
v -0.707107 -0.076526 -0.000000
v -0.000000 -0.076526 0.707107
v 0.707107 -0.076526 0.000000
v 0.000000 2.352503 0.000000
vt 0.250000 0.500000
vt 0.375000 0.500000
vt 0.500000 0.500000
vt 0.625000 0.500000
vt 0.750000 0.500000
vt 0.500000 1.000000
vn 0.000000 0.279505 -0.960144
vn -0.960144 0.279505 -0.000000
vn -0.000000 1.000000 0.000000
vn -0.000000 0.279505 0.960144
vn 0.960144 0.279505 0.000000
s 1
g pPyramid1
f 1/1/1 2/2/2 5/6/3
f 2/2/2 3/3/4 5/6/3
f 3/3/4 4/4/5 5/6/3
f 4/4/5 1/5/1 5/6/3
